# xmcd
#
# Track frame offsets:
#	150
#	23025
#	39300
#	60520
#	83220
#	102982
#	125620
#	142317
#	166692
#	180737
#
# Disc length: 2720 seconds
#
# Revision: 1
# Processed by: cddbd v1.5PL3 Copyright (c) Steve Scherf et al.
# Submitted via: CDex 1.50Beta5
#
DISCID=800a9e0a
DTITLE=太田裕美 - 海が泣いている
DYEAR=1991
DGENRE=Pop
TTITLE0=スカーレットの毛布
TTITLE1=振り向けばイエスタデイ
TTITLE2=茉莉の結婚
TTITLE3=Nenne
TTITLE4=街の雪
TTITLE5=海が泣いている
TTITLE6=ナイーブ
TTITLE7=水鏡
TTITLE8=女優
TTITLE9=∞
EXTD=
EXTT0=
EXTT1=
EXTT2=
EXTT3=
EXTT4=
EXTT5=
EXTT6=
EXTT7=
EXTT8=
EXTT9=
PLAYORDER=
